<svg xmlns="http://www.w3.org/2000/svg" width="800" height="400"><rect width="800" height="400" x="0" y="0" fill="#FFFFFF" id="backgorund"/><g id="viz"><g transform="translate(0,0)"><g transform="translate(50,20)"><g id="sales" fill="#bd10e0"><rect x="216.59889094269872" y="308.5714285714286" width="106.8022181146026" height="51.42857142857139"/><rect x="108.79852125693161" y="102.85714285714285" width="106.8022181146026" height="257.14285714285717"/><rect x="432.19963031423293" y="205.7142857142857" width="106.8022181146026" height="154.2857142857143"/><rect x="324.3992606284658" y="154.2857142857143" width="106.8022181146026" height="205.7142857142857"/><rect x="0.9981515711644988" y="257.14285714285717" width="106.8022181146026" height="102.85714285714283"/></g><g id="profit" fill="#4a90e2"><rect x="216.59889094269872" y="288" width="106.8022181146026" height="20.571428571428555"/><rect x="108.79852125693161" y="20.571428571428577" width="106.8022181146026" height="82.28571428571428"/><rect x="432.19963031423293" y="144" width="106.8022181146026" height="61.71428571428572"/><rect x="324.3992606284658" y="102.85714285714285" width="106.8022181146026" height="51.42857142857139"/><rect x="0.9981515711644988" y="226.28571428571428" width="106.8022181146026" height="30.85714285714289"/></g><g id="xAxis" transform="translate(0,360)" fill="none" font-size="10" font-family="sans-serif" text-anchor="middle"><path class="domain" stroke="currentColor" d="M0,0H540"/><g class="tick" opacity="1" transform="translate(54.3992606284658,0)"><line stroke="currentColor" y2="6"/><text fill="currentColor" y="9" dy="0.71em">central</text></g><g class="tick" opacity="1" transform="translate(162.1996303142329,0)"><line stroke="currentColor" y2="6"/><text fill="currentColor" y="9" dy="0.71em">east</text></g><g class="tick" opacity="1" transform="translate(270,0)"><line stroke="currentColor" y2="6"/><text fill="currentColor" y="9" dy="0.71em">north</text></g><g class="tick" opacity="1" transform="translate(377.8003696857671,0)"><line stroke="currentColor" y2="6"/><text fill="currentColor" y="9" dy="0.71em">south</text></g><g class="tick" opacity="1" transform="translate(485.60073937153425,0)"><line stroke="currentColor" y2="6"/><text fill="currentColor" y="9" dy="0.71em">west</text></g></g><g id="yAxis" fill="none" font-size="10" font-family="sans-serif" text-anchor="end"><path class="domain" stroke="currentColor" d="M0,360V0"/><g class="tick" opacity="1" transform="translate(0,360)"><line stroke="currentColor" x2="-6"/><text fill="currentColor" x="-9" dy="0.32em">0</text></g><g class="tick" opacity="1" transform="translate(0,308.5714285714286)"><line stroke="currentColor" x2="-6"/><text fill="currentColor" x="-9" dy="0.32em">5</text></g><g class="tick" opacity="1" transform="translate(0,257.14285714285717)"><line stroke="currentColor" x2="-6"/><text fill="currentColor" x="-9" dy="0.32em">10</text></g><g class="tick" opacity="1" transform="translate(0,205.7142857142857)"><line stroke="currentColor" x2="-6"/><text fill="currentColor" x="-9" dy="0.32em">15</text></g><g class="tick" opacity="1" transform="translate(0,154.2857142857143)"><line stroke="currentColor" x2="-6"/><text fill="currentColor" x="-9" dy="0.32em">20</text></g><g class="tick" opacity="1" transform="translate(0,102.85714285714285)"><line stroke="currentColor" x2="-6"/><text fill="currentColor" x="-9" dy="0.32em">25</text></g><g class="tick" opacity="1" transform="translate(0,51.428571428571445)"><line stroke="currentColor" x2="-6"/><text fill="currentColor" x="-9" dy="0.32em">30</text></g><g class="tick" opacity="1" transform="translate(0,0)"><line stroke="currentColor" x2="-6"/><text fill="currentColor" x="-9" dy="0.32em">35</text></g></g><text y="356" x="540" text-anchor="end" style="font-family: Arial, sans-serif; font-size: 12px; fill: rgb(123, 123, 123); font-weight: bold;">area</text></g><text x="4" y="4" style="font-family: Arial, sans-serif; font-size: 12px; fill: black; font-weight: bold; dominant-baseline: hanging;"/></g><g id="grid"><rect x="0" y="0" width="600" height="400" fill="none" stroke="#ccc"/></g></g><g id="legend" transform="translate(600,20)"><g transform="translate(5,0)"><g class="legendColor" transform="translate(0,0)"><g class="legendCells" transform="translate(0,15.734375)"><g class="cell" transform="translate(0, 0)"><rect class="swatch" height="15" width="15" style="fill: rgb(74, 144, 226);"/><text class="label" transform="translate( 20, 12.5)" font-family="&quot;Arial&quot;, sans-serif" font-size="10px"><tspan x="0" dy="0em">profit</tspan></text></g><g class="cell" transform="translate(0, 20.734375)"><rect class="swatch" height="15" width="15" style="fill: rgb(189, 16, 224);"/><text class="label" transform="translate( 20, 12.5)" font-family="&quot;Arial&quot;, sans-serif" font-size="10px"><tspan x="0" dy="0em">sales</tspan></text></g></g><text class="legendTitle" font-family="&quot;Arial&quot;, sans-serif" font-size="12px" font-weight="bold"><tspan x="0" dy="0em">Colors</tspan></text></g></g></g></svg>